
<svg width="1288" height="777" viewBox="0 0 1288 777" fill="none" xmlns="http://www.w3.org/2000/svg">
<path d="M153.827 604.186C153.827 604.186 44.3515 657.142 3.2064 427.976C-37.9387 198.81 329.612 99.9834 377.921 97L456.721 99.6105C456.721 99.6105 581.993 129.445 610.281 200.488C610.281 200.488 668.141 202.166 727.654 303.044C787.168 403.922 756.493 461.167 701.204 503.494C701.204 503.494 724.164 563.163 661.528 629.358C598.892 695.554 555.727 671.5 555.727 671.5L582.912 729.49L548.747 739C548.747 739 510.908 700.588 485.743 675.788C460.578 650.988 440.373 643.903 403.453 626.375C403.453 626.375 416.678 641.292 335.306 663.854C254.118 686.23 153.827 604.186 153.827 604.186Z" fill="#206494"/>
<path d="M620.567 208.506C632.323 218.948 639.303 225.288 631.955 244.681C627.914 255.123 603.301 260.903 583.095 262.768C580.891 258.292 576.483 255.309 571.34 255.309C564.176 255.309 558.298 261.276 558.298 268.548C558.298 275.82 564.176 281.787 571.34 281.787C577.034 281.787 581.993 278.058 583.646 272.837C602.015 271.159 634.527 265.565 641.139 248.223C649.222 226.966 642.793 215.965 633.608 206.828C622.771 201.98 615.24 200.675 611.934 200.302C614.873 203.285 617.812 205.896 620.567 208.506Z" fill="#76D3E8"/>
<path d="M704.143 514.309C703.408 509.648 702.49 506.291 701.939 504.613C692.755 505.359 666.12 505.732 646.466 501.07C626.812 496.409 611.199 483.17 603.117 475.152C603.484 473.846 603.852 472.355 603.852 470.863C603.852 463.591 597.974 457.624 590.81 457.624C583.647 457.624 577.769 463.591 577.769 470.863C577.769 478.135 583.647 484.102 590.81 484.102C593.014 484.102 595.035 483.543 596.688 482.61C605.689 491.374 622.587 505.359 644.262 510.58C657.855 513.936 674.754 514.869 687.795 514.869C694.591 514.869 700.653 514.496 704.143 514.309Z" fill="#76D3E8"/>
<path d="M420.352 468.439C414.474 468.439 409.514 472.541 407.861 477.949C392.248 481.864 371.859 482.983 348.715 463.031C336.776 452.776 326.673 429.095 322.816 419.212C326.857 416.974 329.796 412.686 329.796 407.651C329.796 400.379 323.918 394.412 316.754 394.412C309.591 394.412 303.713 400.379 303.713 407.651C303.713 413.432 307.57 418.466 312.713 420.144C315.836 428.535 327.224 457.624 342.47 470.676C358.634 484.475 373.696 489.323 387.105 490.069C387.105 490.255 386.921 490.255 386.921 490.442C380.492 504.054 374.247 516.733 345.409 517.666C324.285 518.225 302.611 503.308 302.427 503.121L296.733 511.326C287.549 521.208 274.323 519.344 248.424 506.105C238.321 500.884 231.158 491.933 226.933 484.661C228.953 482.424 230.239 479.254 230.239 476.084C230.239 468.812 224.361 462.845 217.198 462.845C210.034 462.845 204.156 468.812 204.156 476.084C204.156 483.356 210.034 489.323 217.198 489.323C217.565 489.323 217.749 489.323 218.116 489.136C223.076 497.527 231.341 508.529 244.015 514.869C247.873 516.92 251.914 518.784 255.955 520.649C254.485 536.312 241.077 560.739 213.34 583.115C196.625 596.727 153.827 603.813 153.459 603.813V603.999C154.011 603.813 154.194 603.626 154.194 603.626C154.194 603.626 158.052 606.796 164.848 611.644C179.359 608.474 205.993 601.575 219.402 590.76C244.934 570.249 262.2 544.703 265.323 524.005C271.017 525.87 276.711 527.175 282.038 527.175C290.671 527.175 298.57 524.192 305.182 515.987C314.183 520.836 328.694 527.175 343.756 527.175C344.307 527.175 344.858 527.175 345.225 527.175C380.125 526.243 388.574 508.529 395.371 494.357C396.289 492.679 397.024 491.001 397.759 489.323C401.616 488.95 405.29 488.204 408.596 487.458C410.8 491.56 415.025 494.357 419.984 494.357C427.148 494.357 433.026 488.391 433.026 481.118C433.393 474.406 427.515 468.439 420.352 468.439Z" fill="#76D3E8"/>
<path d="M365.247 615.187C360.471 612.017 355.328 604.745 351.47 598.219C353.307 595.981 354.593 592.998 354.593 589.828C354.593 582.556 348.715 576.589 341.551 576.589C334.388 576.589 328.51 582.556 328.51 589.828C328.51 597.1 334.388 603.067 341.551 603.067C341.919 603.067 342.286 603.067 342.837 602.88C347.062 610.152 353.123 619.103 359.92 623.578C372.41 631.969 386.187 637.19 397.942 638.309C403.636 633.834 404.555 630.477 404.555 628.426C395.003 628.985 380.125 625.256 365.247 615.187Z" fill="#76D3E8"/>
<path d="M382.513 202.726C375.349 202.726 369.472 208.693 369.472 215.965C369.472 218.202 370.023 220.44 371.125 222.305C365.431 226.034 356.43 228.831 345.776 228.644C337.327 228.458 308.856 225.475 300.59 192.47C309.04 186.503 314.734 178.485 316.02 170.84C316.203 170.84 316.387 170.84 316.571 170.84C323.734 170.84 329.612 164.873 329.612 157.601C329.612 150.329 323.734 144.362 316.571 144.362C309.407 144.362 303.529 150.329 303.529 157.601C303.529 161.144 304.999 164.5 307.203 166.738L306.284 166.924C307.019 173.264 298.937 183.706 285.712 189.114C278.916 191.911 255.588 198.997 238.138 175.129C229.872 163.941 224.178 149.583 222.341 144.549C219.402 145.854 216.279 147.159 213.157 148.651C215.361 154.618 221.239 169.162 230.056 181.282C240.342 195.267 254.302 202.726 269.364 202.726C275.793 202.726 282.589 201.421 289.202 198.624C289.937 198.251 290.671 197.878 291.406 197.691C298.753 223.051 318.775 238.341 345.409 238.714C345.776 238.714 346.144 238.714 346.511 238.714C359.736 238.714 371.492 234.798 379.023 228.644C380.125 228.831 381.227 229.017 382.329 229.017C389.493 229.017 395.371 223.051 395.371 215.778C395.555 208.693 389.677 202.726 382.513 202.726Z" fill="#76D3E8"/>
<path d="M109.743 309.757C104.416 309.757 99.824 312.927 97.8035 317.588C89.3541 318.894 78.7004 317.402 66.0262 303.976C56.4747 293.907 47.8416 268.362 47.4742 267.056C44.9026 270.04 42.5147 273.21 40.3105 276.38C43.8005 285.516 50.7805 302.298 58.8626 310.876C71.7204 324.488 83.2925 328.03 92.844 328.03C94.4972 328.03 95.9667 327.844 97.4361 327.658C99.273 332.692 104.049 336.235 109.559 336.235C116.723 336.235 122.601 330.268 122.601 322.996C122.784 315.724 116.907 309.757 109.743 309.757Z" fill="#76D3E8"/>
<path d="M125.356 434.689C118.192 434.689 112.314 440.655 112.314 447.928C112.314 448.673 112.498 449.419 112.498 450.165C102.579 453.335 89.7213 455.386 78.7003 445.131C72.0877 438.977 69.3325 428.162 68.0467 421.45C70.9856 419.025 72.8224 415.296 72.8224 411.194C72.8224 403.922 66.9446 397.955 59.7809 397.955C52.6173 397.955 46.7394 403.922 46.7394 411.194C46.7394 418.093 51.8825 423.687 58.4951 424.247C59.9646 431.705 63.2709 443.08 70.2509 450.725C65.2914 460.607 57.0257 475.152 39.2084 475.152C39.0247 475.152 38.841 475.152 38.841 475.152C25.6158 474.965 11.2884 461.167 11.1048 460.98L10.5537 461.726C11.6558 466.761 12.9416 471.609 14.2274 476.084C20.6563 480.559 29.6568 485.034 38.841 485.221C39.0247 485.221 39.2084 485.221 39.392 485.221C61.8014 485.221 72.6388 468.066 78.333 457.064C84.9456 461.167 91.7419 462.658 98.1708 462.658C105.702 462.658 112.682 460.607 118.192 458.743C120.213 460.234 122.784 460.98 125.54 460.98C132.703 460.98 138.581 455.013 138.581 447.741C138.397 440.655 132.52 434.689 125.356 434.689Z" fill="#76D3E8"/>
<g filter="url(#filter0_i_2_74)">
<path d="M1040.89 284.76C1046.7 285.955 1053.35 287.832 1060.86 290.392V295H980.733V289.88C988.413 287.149 995.24 285.357 1001.21 284.504L988.925 249.432H918.781L905.981 285.016C911.272 285.699 918.269 287.661 926.973 290.904V295H865.277V289.624C869.032 288.429 872.786 287.32 876.541 286.296C880.466 285.272 883.453 284.589 885.501 284.248L948.733 114.776H977.405L1040.89 284.76ZM984.317 236.632L954.109 151.128L923.389 236.632H984.317ZM1070.68 289.88C1076.14 288.344 1082.96 286.637 1091.16 284.76V126.04C1087.4 125.357 1080.58 123.565 1070.68 120.664V115.8H1152.08V120.92C1150.04 121.603 1147.39 122.371 1144.15 123.224C1141.08 123.907 1138.86 124.419 1137.49 124.76L1131.35 126.296V285.016C1135.27 285.699 1142.19 287.491 1152.08 290.392V295H1070.68V289.88ZM825.465 518.28C799.694 518.28 786.809 508.467 786.809 488.84V432.52C783.054 431.752 779.641 430.813 776.569 429.704V427.4H817.145V429.96C815.438 430.557 812.921 431.24 809.593 432.008L806.905 432.648V490.632C806.905 498.141 809.081 503.517 813.433 506.76C817.87 510.003 823.545 511.624 830.457 511.624C837.369 511.624 843.044 509.96 847.481 506.632C852.004 503.304 854.265 497.971 854.265 490.632V432.392C850.425 431.624 846.969 430.728 843.897 429.704V427.4H872.569V429.704C868.046 431.325 864.59 432.307 862.201 432.648V488.84C862.201 498.483 859.086 505.821 852.857 510.856C846.713 515.805 837.582 518.28 825.465 518.28ZM955.994 512.008C960.431 512.947 963.717 513.843 965.85 514.696V517H939.866L920.41 478.728H910.17V512.008C912.047 512.349 915.461 513.245 920.41 514.696V517H879.706V514.44C881.669 513.843 883.631 513.331 885.594 512.904C887.557 512.392 889.05 512.051 890.074 511.88V432.52C887.343 432.008 883.973 431.112 879.962 429.832V427.4H928.602C939.269 427.4 946.778 429.619 951.13 434.056C955.482 438.408 957.658 444.552 957.658 452.488C957.658 459.144 955.866 464.691 952.282 469.128C948.783 473.48 943.834 476.381 937.434 477.832L955.994 512.008ZM910.17 472.456H921.818C932.485 472.456 937.818 465.715 937.818 452.232C937.818 446.088 936.495 441.48 933.85 438.408C931.29 435.336 927.279 433.8 921.818 433.8H910.17V472.456ZM971.06 514.824C975.583 513.032 978.996 511.965 981.3 511.624V432.52C978.399 432.008 974.985 431.112 971.06 429.832V427.4H1012.79C1023.97 427.4 1031.95 429.149 1036.72 432.648C1041.59 436.061 1044.02 441.267 1044.02 448.264C1044.02 453.043 1042.61 457.352 1039.8 461.192C1037.07 465.032 1033.01 467.72 1027.64 469.256V470.024C1034.55 471.475 1039.63 474.291 1042.87 478.472C1046.11 482.653 1047.73 487.219 1047.73 492.168C1047.73 500.445 1045.3 506.675 1040.44 510.856C1035.66 514.952 1027.76 517 1016.76 517H971.06V514.824ZM1009.59 466.824C1014.28 466.824 1017.82 465.288 1020.21 462.216C1022.6 459.059 1023.8 454.792 1023.8 449.416C1023.8 443.955 1022.73 439.987 1020.6 437.512C1018.46 435.037 1014.96 433.8 1010.1 433.8H1001.4V466.824H1009.59ZM1014.07 510.728C1023.2 510.728 1027.76 504.285 1027.76 491.4C1027.76 485.427 1026.44 480.904 1023.8 477.832C1021.15 474.675 1017.35 473.096 1012.4 473.096H1001.4V510.728H1014.07ZM1138.94 511.88C1141.84 512.477 1145.17 513.416 1148.93 514.696V517H1108.86V514.44C1112.7 513.075 1116.12 512.179 1119.1 511.752L1112.96 494.216H1077.89L1071.49 512.008C1074.13 512.349 1077.63 513.331 1081.98 514.952V517H1051.13V514.312C1053.01 513.715 1054.89 513.16 1056.77 512.648C1058.73 512.136 1060.22 511.795 1061.25 511.624L1092.86 426.888H1107.2L1138.94 511.88ZM1110.65 487.816L1095.55 445.064L1080.19 487.816H1110.65ZM1153.83 514.824C1157.5 513.629 1160.87 512.733 1163.95 512.136V432.52C1160.36 431.837 1156.95 430.899 1153.71 429.704V427.4H1184.04L1228.46 492.808V432.392C1224.19 431.368 1220.82 430.472 1218.35 429.704V427.4H1246.63V429.704C1244.16 430.472 1240.79 431.368 1236.52 432.392V517H1226.28L1171.88 437.512V512.136C1174.78 512.733 1178.15 513.629 1181.99 514.824V517H1153.83V514.824ZM843.736 740.28C836.653 740.28 830.125 739.171 824.152 736.952C818.264 734.733 813.869 731.789 810.968 728.12L812.888 709.432H817.496C818.52 712.504 819.416 718.179 820.184 726.456C822.317 728.589 825.005 730.339 828.248 731.704C831.491 732.984 834.904 733.624 838.488 733.624C844.12 733.624 848.856 732.173 852.696 729.272C856.621 726.371 858.584 722.189 858.584 716.728C858.584 713.4 857.688 710.627 855.896 708.408C854.104 706.104 851.843 704.269 849.112 702.904C846.467 701.539 842.797 699.96 838.104 698.168C832.472 696.035 827.907 694.029 824.408 692.152C820.995 690.275 818.093 687.629 815.704 684.216C813.315 680.803 812.12 676.451 812.12 671.16C812.12 663.651 815.149 657.933 821.208 654.008C827.352 650.083 835.629 648.12 846.04 648.12C852.952 648.12 858.797 648.888 863.576 650.424C868.355 651.875 872.451 654.221 875.864 657.464L874.072 675H869.336C867.885 670.307 866.904 665.144 866.392 659.512C864.6 657.976 862.253 656.824 859.352 656.056C856.536 655.203 853.507 654.776 850.264 654.776C844.888 654.776 840.579 655.885 837.336 658.104C834.179 660.237 832.6 663.523 832.6 667.96C832.6 670.435 833.368 672.568 834.904 674.36C836.44 676.067 838.36 677.517 840.664 678.712C843.053 679.821 846.339 681.229 850.52 682.936C856.579 685.325 861.485 687.629 865.24 689.848C868.995 691.981 872.237 695.053 874.968 699.064C877.699 702.989 879.064 707.981 879.064 714.04C879.064 719.501 877.528 724.237 874.456 728.248C871.384 732.173 867.16 735.16 861.784 737.208C856.408 739.256 850.392 740.28 843.736 740.28ZM886.435 736.44C888.398 735.843 890.318 735.331 892.195 734.904C894.158 734.392 895.651 734.051 896.675 733.88V654.52C893.603 653.837 890.275 652.941 886.691 651.832V649.4H931.491C942.926 649.4 951.075 651.747 955.939 656.44C960.888 661.048 963.363 667.491 963.363 675.768C963.363 681.059 962.254 685.88 960.035 690.232C957.902 694.499 954.616 697.912 950.179 700.472C945.742 703.032 940.28 704.312 933.795 704.312H916.771V734.008C918.734 734.349 922.19 735.245 927.139 736.696V739H886.435V736.44ZM928.547 698.04C933.667 698.04 937.422 695.949 939.811 691.768C942.286 687.501 943.523 682.083 943.523 675.512C943.523 669.283 942.286 664.461 939.811 661.048C937.336 657.549 933.582 655.8 928.547 655.8H916.771V698.04H928.547ZM1044.32 733.88C1047.22 734.477 1050.55 735.416 1054.3 736.696V739H1014.24V736.44C1018.08 735.075 1021.49 734.179 1024.48 733.752L1018.33 716.216H983.261L976.861 734.008C979.506 734.349 983.005 735.331 987.357 736.952V739H956.509V736.312C958.386 735.715 960.264 735.16 962.141 734.648C964.104 734.136 965.597 733.795 966.621 733.624L998.237 648.888H1012.57L1044.32 733.88ZM1016.03 709.816L1000.92 667.064L985.565 709.816H1016.03ZM1097.28 740.28C1082.69 740.28 1071.59 736.227 1064 728.12C1056.41 720.013 1052.61 708.707 1052.61 694.2C1052.61 679.779 1056.41 668.515 1064 660.408C1071.59 652.216 1082.52 648.12 1096.77 648.12C1103.94 648.12 1109.95 648.973 1114.82 650.68C1119.77 652.387 1123.99 654.904 1127.49 658.232L1125.7 676.92H1120.96C1119.42 672.483 1118.36 666.808 1117.76 659.896C1113.41 656.483 1108.12 654.776 1101.89 654.776C1092.84 654.776 1085.76 658.317 1080.64 665.4C1075.61 672.397 1073.09 681.997 1073.09 694.2C1073.09 706.573 1075.35 716.259 1079.87 723.256C1084.48 730.168 1091.22 733.624 1100.1 733.624C1103.77 733.624 1107.73 732.984 1112 731.704C1116.27 730.424 1120.28 728.419 1124.03 725.688L1126.85 731.064C1123.43 733.965 1119.17 736.227 1114.05 737.848C1108.93 739.469 1103.34 740.28 1097.28 740.28ZM1212.1 716.6L1209.67 739H1136.46V736.696C1140.04 735.416 1143.71 734.477 1147.46 733.88V654.52C1143.97 653.923 1140.3 652.984 1136.46 651.704V649.4H1209.8V672.056H1205.45C1204.51 670.52 1203.44 667.917 1202.25 664.248C1201.14 660.579 1200.54 657.763 1200.46 655.8H1167.56V691H1189.7C1190.47 686.136 1191.37 682.467 1192.39 679.992H1195.59V708.408H1192.39C1191.71 706.616 1191.11 704.653 1190.6 702.52C1190.17 700.387 1189.87 698.68 1189.7 697.4H1167.56V732.728H1201.22C1201.39 730.509 1202.21 727.651 1203.66 724.152C1205.19 720.568 1206.56 718.051 1207.75 716.6H1212.1Z" fill="#206494"/>
</g>
<defs>
<filter id="filter0_i_2_74" x="776.569" y="114.776" width="470.065" height="629.504" filterUnits="userSpaceOnUse" color-interpolation-filters="sRGB">
<feFlood flood-opacity="0" result="BackgroundImageFix"/>
<feBlend mode="normal" in="SourceGraphic" in2="BackgroundImageFix" result="shape"/>
<feColorMatrix in="SourceAlpha" type="matrix" values="0 0 0 0 0 0 0 0 0 0 0 0 0 0 0 0 0 0 127 0" result="hardAlpha"/>
<feOffset dy="4"/>
<feGaussianBlur stdDeviation="2"/>
<feComposite in2="hardAlpha" operator="arithmetic" k2="-1" k3="1"/>
<feColorMatrix type="matrix" values="0 0 0 0 0 0 0 0 0 0 0 0 0 0 0 0 0 0 0.25 0"/>
<feBlend mode="normal" in2="shape" result="effect1_innerShadow_2_74"/>
</filter>
</defs>
</svg>