
<svg width="1234" height="767" viewBox="0 0 1234 767" fill="none" xmlns="http://www.w3.org/2000/svg">
<path d="M139.937 593.894C139.937 593.894 54.6649 634.395 22.6163 459.13C-9.4323 283.864 276.859 208.282 314.487 206L375.866 207.997C375.866 207.997 473.443 230.814 495.476 285.148C495.476 285.148 540.544 286.431 586.901 363.582C633.257 440.733 609.363 484.514 566.298 516.886C566.298 516.886 584.182 562.52 535.394 613.146C486.606 663.772 452.983 645.376 452.983 645.376L474.158 689.727L447.546 697C447.546 697 418.073 667.623 398.472 648.656C378.871 629.689 363.133 624.27 334.375 610.865C334.375 610.865 344.676 622.273 281.294 639.529C218.056 656.642 139.937 593.894 139.937 593.894Z" fill="#206494"/>
<path d="M503.488 291.28C512.645 299.266 518.082 304.114 512.359 318.946C509.211 326.932 490.039 331.353 474.301 332.779C472.584 329.356 469.151 327.074 465.144 327.074C459.565 327.074 454.986 331.638 454.986 337.2C454.986 342.761 459.565 347.325 465.144 347.325C469.58 347.325 473.443 344.473 474.73 340.48C489.038 339.196 514.362 334.918 519.513 321.655C525.808 305.398 520.8 296.984 513.647 289.996C505.205 286.288 499.339 285.29 496.764 285.005C499.053 287.287 501.342 289.283 503.488 291.28Z" fill="#76D3E8"/>
<path d="M568.587 525.157C568.015 521.592 567.299 519.025 566.87 517.741C559.716 518.312 538.971 518.597 523.662 515.032C508.353 511.467 496.192 501.342 489.896 495.209C490.182 494.211 490.469 493.07 490.469 491.929C490.469 486.368 485.89 481.804 480.31 481.804C474.73 481.804 470.152 486.368 470.152 491.929C470.152 497.491 474.73 502.055 480.31 502.055C482.027 502.055 483.601 501.627 484.889 500.914C491.899 507.616 505.062 518.312 521.945 522.305C532.532 524.872 545.695 525.585 555.853 525.585C561.147 525.585 565.869 525.3 568.587 525.157Z" fill="#76D3E8"/>
<path d="M347.538 490.075C342.959 490.075 339.096 493.213 337.809 497.348C325.647 500.343 309.766 501.199 291.739 485.94C282.439 478.096 274.57 459.985 271.565 452.427C274.713 450.716 277.002 447.436 277.002 443.585C277.002 438.023 272.424 433.46 266.844 433.46C261.264 433.46 256.685 438.023 256.685 443.585C256.685 448.006 259.69 451.856 263.696 453.14C266.128 459.557 274.999 481.804 286.874 491.787C299.465 502.34 311.197 506.048 321.641 506.618C321.641 506.761 321.498 506.761 321.498 506.903C316.49 517.314 311.626 527.011 289.163 527.724C272.71 528.152 255.827 516.743 255.684 516.601L251.249 522.875C244.095 530.434 233.794 529.007 213.62 518.882C205.751 514.889 200.171 508.044 196.881 502.482C198.454 500.771 199.456 498.347 199.456 495.922C199.456 490.361 194.877 485.797 189.298 485.797C183.718 485.797 179.139 490.361 179.139 495.922C179.139 501.484 183.718 506.048 189.298 506.048C189.584 506.048 189.727 506.048 190.013 505.905C193.876 512.322 200.314 520.736 210.186 525.585C213.191 527.154 216.339 528.58 219.486 530.006C218.342 541.985 207.897 560.667 186.293 577.779C173.273 588.19 139.937 593.609 139.651 593.609V593.752C140.08 593.609 140.223 593.466 140.223 593.466C140.223 593.466 143.228 595.891 148.521 599.599C159.824 597.174 180.57 591.898 191.014 583.626C210.902 567.94 224.351 548.402 226.783 532.573C231.218 533.999 235.654 534.997 239.803 534.997C246.527 534.997 252.679 532.715 257.83 526.441C264.841 530.148 276.144 534.997 287.876 534.997C288.305 534.997 288.734 534.997 289.02 534.997C316.204 534.284 322.786 520.736 328.079 509.898C328.795 508.615 329.367 507.331 329.939 506.048C332.944 505.762 335.805 505.192 338.381 504.621C340.098 507.759 343.388 509.898 347.251 509.898C352.831 509.898 357.41 505.335 357.41 499.773C357.696 494.639 353.117 490.075 347.538 490.075Z" fill="#76D3E8"/>
<path d="M304.615 602.308C300.895 599.884 296.889 594.322 293.885 589.331C295.315 587.619 296.317 585.338 296.317 582.913C296.317 577.352 291.739 572.788 286.159 572.788C280.579 572.788 276 577.352 276 582.913C276 588.475 280.579 593.039 286.159 593.039C286.445 593.039 286.731 593.039 287.16 592.896C290.451 598.458 295.172 605.303 300.466 608.725C310.195 615.143 320.926 619.136 330.083 619.992C334.518 616.569 335.233 614.002 335.233 612.433C327.793 612.861 316.204 610.009 304.615 602.308Z" fill="#76D3E8"/>
<path d="M318.064 286.859C312.484 286.859 307.906 291.422 307.906 296.984C307.906 298.695 308.335 300.407 309.194 301.833C304.758 304.685 297.748 306.824 289.45 306.681C282.868 306.539 260.692 304.257 254.253 279.015C260.835 274.452 265.27 268.32 266.272 262.473C266.415 262.473 266.558 262.473 266.701 262.473C272.281 262.473 276.859 257.909 276.859 252.348C276.859 246.786 272.281 242.222 266.701 242.222C261.121 242.222 256.542 246.786 256.542 252.348C256.542 255.057 257.687 257.624 259.404 259.335L258.689 259.478C259.261 264.327 252.966 272.313 242.664 276.448C237.371 278.588 219.2 284.007 205.608 265.753C199.17 257.196 194.734 246.216 193.304 242.365C191.015 243.363 188.582 244.362 186.15 245.502C187.867 250.066 192.445 261.189 199.313 270.459C207.325 281.155 218.199 286.859 229.931 286.859C234.938 286.859 240.232 285.861 245.383 283.721C245.955 283.436 246.527 283.151 247.1 283.008C252.823 302.403 268.418 314.097 289.163 314.382C289.45 314.382 289.736 314.382 290.022 314.382C300.323 314.382 309.48 311.387 315.346 306.681C316.204 306.824 317.063 306.967 317.921 306.967C323.501 306.967 328.079 302.403 328.079 296.841C328.223 291.422 323.644 286.859 318.064 286.859Z" fill="#76D3E8"/>
<path d="M105.599 368.716C101.45 368.716 97.8733 371.14 96.2995 374.705C89.7181 375.704 81.4198 374.563 71.5477 364.295C64.1079 356.594 57.3834 337.057 57.0972 336.059C55.0942 338.34 53.2342 340.765 51.5173 343.189C54.2357 350.177 59.6726 363.012 65.9678 369.572C75.983 379.982 84.9967 382.692 92.4365 382.692C93.7242 382.692 94.8688 382.549 96.0134 382.406C97.4441 386.257 101.164 388.966 105.456 388.966C111.036 388.966 115.615 384.403 115.615 378.841C115.758 373.279 111.179 368.716 105.599 368.716Z" fill="#76D3E8"/>
<path d="M117.761 464.263C112.181 464.263 107.602 468.827 107.602 474.389C107.602 474.959 107.745 475.529 107.745 476.1C100.019 478.524 90.0042 480.093 81.4197 472.249C76.2691 467.543 74.1229 459.272 73.1214 454.138C75.4106 452.284 76.8413 449.432 76.8413 446.295C76.8413 440.733 72.263 436.17 66.6831 436.17C61.1032 436.17 56.5248 440.733 56.5248 446.295C56.5248 451.571 60.5309 455.849 65.6816 456.277C66.8262 461.982 69.4015 470.681 74.8383 476.528C70.9753 484.086 64.537 495.209 50.6588 495.209C50.5157 495.209 50.3726 495.209 50.3726 495.209C40.0713 495.067 28.9115 484.514 28.7685 484.371L28.3392 484.942C29.1977 488.792 30.1992 492.5 31.2007 495.922C36.2083 499.345 43.2189 502.768 50.3726 502.91C50.5157 502.91 50.6588 502.91 50.8019 502.91C68.2569 502.91 76.6983 489.79 81.1336 481.376C86.2842 484.514 91.578 485.655 96.5856 485.655C102.452 485.655 107.888 484.086 112.181 482.66C113.754 483.801 115.758 484.371 117.904 484.371C123.484 484.371 128.062 479.808 128.062 474.246C127.919 468.827 123.34 464.263 117.761 464.263Z" fill="#76D3E8"/>
<g filter="url(#filter0_i_2_74)">
<path d="M1013.65 274.76C1019.45 275.955 1026.1 277.832 1033.61 280.392V285H953.486V279.88C961.166 277.149 967.992 275.357 973.966 274.504L961.678 239.432H891.534L878.734 275.016C884.024 275.699 891.022 277.661 899.726 280.904V285H838.03V279.624C841.784 278.429 845.539 277.32 849.294 276.296C853.219 275.272 856.206 274.589 858.254 274.248L921.486 104.776H950.158L1013.65 274.76ZM957.07 226.632L926.862 141.128L896.142 226.632H957.07ZM1043.43 279.88C1048.89 278.344 1055.72 276.637 1063.91 274.76V116.04C1060.16 115.357 1053.33 113.565 1043.43 110.664V105.8H1124.84V110.92C1122.79 111.603 1120.14 112.371 1116.9 113.224C1113.83 113.907 1111.61 114.419 1110.25 114.76L1104.1 116.296V275.016C1108.03 275.699 1114.94 277.491 1124.84 280.392V285H1043.43V279.88ZM798.218 508.28C772.447 508.28 759.562 498.467 759.562 478.84V422.52C755.807 421.752 752.394 420.813 749.322 419.704V417.4H789.898V419.96C788.191 420.557 785.674 421.24 782.346 422.008L779.658 422.648V480.632C779.658 488.141 781.834 493.517 786.186 496.76C790.623 500.003 796.298 501.624 803.21 501.624C810.122 501.624 815.796 499.96 820.234 496.632C824.756 493.304 827.018 487.971 827.018 480.632V422.392C823.178 421.624 819.722 420.728 816.65 419.704V417.4H845.322V419.704C840.799 421.325 837.343 422.307 834.954 422.648V478.84C834.954 488.483 831.839 495.821 825.61 500.856C819.466 505.805 810.335 508.28 798.218 508.28ZM928.747 502.008C933.184 502.947 936.469 503.843 938.603 504.696V507H912.619L893.163 468.728H882.923V502.008C884.8 502.349 888.213 503.245 893.163 504.696V507H852.459V504.44C854.421 503.843 856.384 503.331 858.347 502.904C860.309 502.392 861.803 502.051 862.827 501.88V422.52C860.096 422.008 856.725 421.112 852.715 419.832V417.4H901.355C912.021 417.4 919.531 419.619 923.883 424.056C928.235 428.408 930.411 434.552 930.411 442.488C930.411 449.144 928.619 454.691 925.035 459.128C921.536 463.48 916.587 466.381 910.187 467.832L928.747 502.008ZM882.923 462.456H894.571C905.237 462.456 910.571 455.715 910.571 442.232C910.571 436.088 909.248 431.48 906.603 428.408C904.043 425.336 900.032 423.8 894.571 423.8H882.923V462.456ZM943.813 504.824C948.335 503.032 951.749 501.965 954.053 501.624V422.52C951.151 422.008 947.738 421.112 943.813 419.832V417.4H985.541C996.719 417.4 1004.7 419.149 1009.48 422.648C1014.34 426.061 1016.77 431.267 1016.77 438.264C1016.77 443.043 1015.36 447.352 1012.55 451.192C1009.82 455.032 1005.76 457.72 1000.39 459.256V460.024C1007.3 461.475 1012.38 464.291 1015.62 468.472C1018.86 472.653 1020.48 477.219 1020.48 482.168C1020.48 490.445 1018.05 496.675 1013.19 500.856C1008.41 504.952 1000.52 507 989.509 507H943.813V504.824ZM982.341 456.824C987.034 456.824 990.575 455.288 992.965 452.216C995.354 449.059 996.549 444.792 996.549 439.416C996.549 433.955 995.482 429.987 993.349 427.512C991.215 425.037 987.717 423.8 982.853 423.8H974.149V456.824H982.341ZM986.821 500.728C995.951 500.728 1000.52 494.285 1000.52 481.4C1000.52 475.427 999.194 470.904 996.549 467.832C993.903 464.675 990.106 463.096 985.157 463.096H974.149V500.728H986.821ZM1111.69 501.88C1114.6 502.477 1117.92 503.416 1121.68 504.696V507H1081.61V504.44C1085.45 503.075 1088.87 502.179 1091.85 501.752L1085.71 484.216H1050.64L1044.24 502.008C1046.88 502.349 1050.38 503.331 1054.73 504.952V507H1023.89V504.312C1025.76 503.715 1027.64 503.16 1029.52 502.648C1031.48 502.136 1032.97 501.795 1034 501.624L1065.61 416.888H1079.95L1111.69 501.88ZM1083.41 477.816L1068.3 435.064L1052.94 477.816H1083.41ZM1126.59 504.824C1130.26 503.629 1133.63 502.733 1136.7 502.136V422.52C1133.11 421.837 1129.7 420.899 1126.46 419.704V417.4H1156.79L1201.21 482.808V422.392C1196.94 421.368 1193.57 420.472 1191.1 419.704V417.4H1219.39V419.704C1216.91 420.472 1213.54 421.368 1209.27 422.392V507H1199.03L1144.63 427.512V502.136C1147.54 502.733 1150.91 503.629 1154.75 504.824V507H1126.59V504.824ZM816.489 730.28C809.406 730.28 802.878 729.171 796.905 726.952C791.017 724.733 786.622 721.789 783.721 718.12L785.641 699.432H790.249C791.273 702.504 792.169 708.179 792.937 716.456C795.07 718.589 797.758 720.339 801.001 721.704C804.243 722.984 807.657 723.624 811.241 723.624C816.873 723.624 821.609 722.173 825.449 719.272C829.374 716.371 831.337 712.189 831.337 706.728C831.337 703.4 830.441 700.627 828.649 698.408C826.857 696.104 824.595 694.269 821.865 692.904C819.219 691.539 815.55 689.96 810.857 688.168C805.225 686.035 800.659 684.029 797.161 682.152C793.747 680.275 790.846 677.629 788.457 674.216C786.067 670.803 784.873 666.451 784.873 661.16C784.873 653.651 787.902 647.933 793.961 644.008C800.105 640.083 808.382 638.12 818.793 638.12C825.705 638.12 831.55 638.888 836.329 640.424C841.107 641.875 845.203 644.221 848.617 647.464L846.825 665H842.089C840.638 660.307 839.657 655.144 839.145 649.512C837.353 647.976 835.006 646.824 832.105 646.056C829.289 645.203 826.259 644.776 823.017 644.776C817.641 644.776 813.331 645.885 810.089 648.104C806.931 650.237 805.353 653.523 805.353 657.96C805.353 660.435 806.121 662.568 807.657 664.36C809.193 666.067 811.113 667.517 813.417 668.712C815.806 669.821 819.091 671.229 823.273 672.936C829.331 675.325 834.238 677.629 837.993 679.848C841.747 681.981 844.99 685.053 847.721 689.064C850.451 692.989 851.817 697.981 851.817 704.04C851.817 709.501 850.281 714.237 847.209 718.248C844.137 722.173 839.913 725.16 834.537 727.208C829.161 729.256 823.145 730.28 816.489 730.28ZM859.188 726.44C861.15 725.843 863.07 725.331 864.948 724.904C866.91 724.392 868.404 724.051 869.428 723.88V644.52C866.356 643.837 863.028 642.941 859.444 641.832V639.4H904.244C915.678 639.4 923.828 641.747 928.692 646.44C933.641 651.048 936.116 657.491 936.116 665.768C936.116 671.059 935.006 675.88 932.788 680.232C930.654 684.499 927.369 687.912 922.932 690.472C918.494 693.032 913.033 694.312 906.548 694.312H889.524V724.008C891.486 724.349 894.942 725.245 899.892 726.696V729H859.188V726.44ZM901.3 688.04C906.42 688.04 910.174 685.949 912.564 681.768C915.038 677.501 916.276 672.083 916.276 665.512C916.276 659.283 915.038 654.461 912.564 651.048C910.089 647.549 906.334 645.8 901.3 645.8H889.524V688.04H901.3ZM1017.07 723.88C1019.97 724.477 1023.3 725.416 1027.05 726.696V729H986.99V726.44C990.83 725.075 994.243 724.179 997.23 723.752L991.086 706.216H956.014L949.614 724.008C952.259 724.349 955.758 725.331 960.11 726.952V729H929.262V726.312C931.139 725.715 933.016 725.16 934.894 724.648C936.856 724.136 938.35 723.795 939.374 723.624L970.99 638.888H985.326L1017.07 723.88ZM988.782 699.816L973.678 657.064L958.318 699.816H988.782ZM1070.03 730.28C1055.44 730.28 1044.35 726.227 1036.75 718.12C1029.16 710.013 1025.36 698.707 1025.36 684.2C1025.36 669.779 1029.16 658.515 1036.75 650.408C1044.35 642.216 1055.27 638.12 1069.52 638.12C1076.69 638.12 1082.7 638.973 1087.57 640.68C1092.52 642.387 1096.74 644.904 1100.24 648.232L1098.45 666.92H1093.71C1092.18 662.483 1091.11 656.808 1090.51 649.896C1086.16 646.483 1080.87 644.776 1074.64 644.776C1065.6 644.776 1058.51 648.317 1053.39 655.4C1048.36 662.397 1045.84 671.997 1045.84 684.2C1045.84 696.573 1048.1 706.259 1052.62 713.256C1057.23 720.168 1063.97 723.624 1072.85 723.624C1076.52 723.624 1080.49 722.984 1084.75 721.704C1089.02 720.424 1093.03 718.419 1096.78 715.688L1099.6 721.064C1096.19 723.965 1091.92 726.227 1086.8 727.848C1081.68 729.469 1076.09 730.28 1070.03 730.28ZM1184.86 706.6L1182.42 729H1109.21V726.696C1112.79 725.416 1116.46 724.477 1120.22 723.88V644.52C1116.72 643.923 1113.05 642.984 1109.21 641.704V639.4H1182.55V662.056H1178.2C1177.26 660.52 1176.2 657.917 1175 654.248C1173.89 650.579 1173.29 647.763 1173.21 645.8H1140.31V681H1162.46C1163.22 676.136 1164.12 672.467 1165.14 669.992H1168.34V698.408H1165.14C1164.46 696.616 1163.86 694.653 1163.35 692.52C1162.93 690.387 1162.63 688.68 1162.46 687.4H1140.31V722.728H1173.98C1174.15 720.509 1174.96 717.651 1176.41 714.152C1177.94 710.568 1179.31 708.051 1180.5 706.6H1184.86Z" fill="#206494"/>
</g>
<defs>
<filter id="filter0_i_2_74" x="749.322" y="104.776" width="470.065" height="629.504" filterUnits="userSpaceOnUse" color-interpolation-filters="sRGB">
<feFlood flood-opacity="0" result="BackgroundImageFix"/>
<feBlend mode="normal" in="SourceGraphic" in2="BackgroundImageFix" result="shape"/>
<feColorMatrix in="SourceAlpha" type="matrix" values="0 0 0 0 0 0 0 0 0 0 0 0 0 0 0 0 0 0 127 0" result="hardAlpha"/>
<feOffset dy="4"/>
<feGaussianBlur stdDeviation="2"/>
<feComposite in2="hardAlpha" operator="arithmetic" k2="-1" k3="1"/>
<feColorMatrix type="matrix" values="0 0 0 0 0 0 0 0 0 0 0 0 0 0 0 0 0 0 0.25 0"/>
<feBlend mode="normal" in2="shape" result="effect1_innerShadow_2_74"/>
</filter>
</defs>
</svg>